<svg xmlns="http://www.w3.org/2000/svg" viewBox="0 0 1600 900" role="img" aria-labelledby="title desc">
  <title id="title">Work page placeholder</title>
  <desc id="desc">Placeholder image for the work archive page screenshot.</desc>
  <rect width="1600" height="900" fill="#f7f5f2"/>
  <rect x="70" y="70" width="1460" height="760" rx="32" fill="#ffffff" stroke="#111010" stroke-opacity="0.12"/>
  <rect x="120" y="120" width="1360" height="70" rx="18" fill="#f2eee9"/>
  <rect x="120" y="240" width="800" height="120" rx="20" fill="#111010"/>
  <rect x="120" y="420" width="900" height="110" rx="20" fill="#ece8e3"/>
  <rect x="120" y="555" width="900" height="110" rx="20" fill="#ece8e3"/>
  <rect x="120" y="690" width="900" height="90" rx="20" fill="#ece8e3"/>
  <rect x="1080" y="420" width="360" height="360" rx="24" fill="#fff5ef" stroke="#ff5b22" stroke-opacity="0.4"/>
  <rect x="1120" y="470" width="280" height="28" rx="10" fill="#111010"/>
  <rect x="1120" y="525" width="210" height="20" rx="10" fill="#d8d1cb"/>
  <rect x="1120" y="565" width="240" height="20" rx="10" fill="#d8d1cb"/>
  <rect x="1120" y="645" width="180" height="50" rx="18" fill="#ff5b22"/>
  <text x="120" y="170" font-family="Arial, Helvetica, sans-serif" font-size="28" fill="#5a5450">README VISUAL PLACEHOLDER</text>
  <text x="120" y="318" font-family="Arial, Helvetica, sans-serif" font-size="64" font-weight="700" fill="#f7f5f2">WORK ROUTE</text>
  <text x="120" y="815" font-family="Arial, Helvetica, sans-serif" font-size="24" fill="#5a5450">Replace with a screenshot of the work archive and sidebar.</text>
</svg>
