<svg xmlns="http://www.w3.org/2000/svg" viewBox="0 0 1600 900" role="img" aria-labelledby="title desc">
  <title id="title">Blog page placeholder</title>
  <desc id="desc">Placeholder image for the blog page screenshot.</desc>
  <rect width="1600" height="900" fill="#f7f5f2"/>
  <rect x="70" y="70" width="1460" height="760" rx="32" fill="#ffffff" stroke="#111010" stroke-opacity="0.12"/>
  <rect x="120" y="120" width="1360" height="70" rx="18" fill="#f2eee9"/>
  <rect x="120" y="240" width="900" height="120" rx="20" fill="#111010"/>
  <rect x="120" y="420" width="920" height="330" rx="24" fill="#fffdfb" stroke="#111010" stroke-opacity="0.08"/>
  <rect x="1100" y="420" width="340" height="330" rx="24" fill="#f9f3ee"/>
  <rect x="170" y="470" width="820" height="1" fill="#d8d1cb"/>
  <rect x="170" y="545" width="820" height="1" fill="#d8d1cb"/>
  <rect x="170" y="620" width="820" height="1" fill="#d8d1cb"/>
  <rect x="1140" y="470" width="220" height="20" rx="10" fill="#111010"/>
  <rect x="1140" y="515" width="180" height="20" rx="10" fill="#d8d1cb"/>
  <rect x="1140" y="555" width="200" height="20" rx="10" fill="#d8d1cb"/>
  <rect x="1140" y="635" width="160" height="50" rx="18" fill="#3939ff"/>
  <text x="120" y="170" font-family="Arial, Helvetica, sans-serif" font-size="28" fill="#5a5450">README VISUAL PLACEHOLDER</text>
  <text x="120" y="318" font-family="Arial, Helvetica, sans-serif" font-size="64" font-weight="700" fill="#f7f5f2">BLOG ROUTE</text>
  <text x="120" y="810" font-family="Arial, Helvetica, sans-serif" font-size="24" fill="#5a5450">Replace with a screenshot of the blog index page.</text>
</svg>
