<svg xmlns="http://www.w3.org/2000/svg" viewBox="0 0 1600 900" role="img" aria-labelledby="title desc">
  <title id="title">Vercel and Sanity architecture placeholder</title>
  <desc id="desc">Placeholder image for the deployment and CMS wiring diagram.</desc>
  <rect width="1600" height="900" fill="#f7f5f2"/>
  <rect x="120" y="180" width="280" height="220" rx="28" fill="#111010"/>
  <rect x="660" y="120" width="280" height="220" rx="28" fill="#ffffff" stroke="#111010" stroke-opacity="0.18"/>
  <rect x="660" y="500" width="280" height="220" rx="28" fill="#ffffff" stroke="#111010" stroke-opacity="0.18"/>
  <rect x="1200" y="180" width="280" height="220" rx="28" fill="#ffffff" stroke="#111010" stroke-opacity="0.18"/>
  <path d="M400 290H620" stroke="#111010" stroke-width="10" stroke-linecap="round"/>
  <path d="M940 240H1160" stroke="#111010" stroke-width="10" stroke-linecap="round"/>
  <path d="M800 340V460" stroke="#111010" stroke-width="10" stroke-linecap="round"/>
  <polygon points="620,290 582,268 582,312" fill="#111010"/>
  <polygon points="1160,240 1122,218 1122,262" fill="#111010"/>
  <polygon points="800,460 778,422 822,422" fill="#111010"/>
  <text x="170" y="250" font-family="Arial, Helvetica, sans-serif" font-size="34" font-weight="700" fill="#f7f5f2">EDITORS</text>
  <text x="170" y="298" font-family="Arial, Helvetica, sans-serif" font-size="24" fill="#f7f5f2">Write and publish content</text>
  <text x="710" y="205" font-family="Arial, Helvetica, sans-serif" font-size="34" font-weight="700" fill="#111010">SANITY STUDIO</text>
  <text x="710" y="250" font-family="Arial, Helvetica, sans-serif" font-size="24" fill="#5a5450">Authoring workspace</text>
  <text x="700" y="585" font-family="Arial, Helvetica, sans-serif" font-size="34" font-weight="700" fill="#111010">SANITY DATASET</text>
  <text x="710" y="630" font-family="Arial, Helvetica, sans-serif" font-size="24" fill="#5a5450">Structured content source</text>
  <text x="1245" y="250" font-family="Arial, Helvetica, sans-serif" font-size="34" font-weight="700" fill="#111010">VERCEL APP</text>
  <text x="1245" y="295" font-family="Arial, Helvetica, sans-serif" font-size="24" fill="#5a5450">Portfolio frontend</text>
  <text x="410" y="268" font-family="Arial, Helvetica, sans-serif" font-size="20" fill="#111010">content authorship</text>
  <text x="965" y="218" font-family="Arial, Helvetica, sans-serif" font-size="20" fill="#111010">published content</text>
  <text x="835" y="405" font-family="Arial, Helvetica, sans-serif" font-size="20" fill="#111010">query layer</text>
  <text x="120" y="110" font-family="Arial, Helvetica, sans-serif" font-size="30" fill="#5a5450">README VISUAL PLACEHOLDER</text>
</svg>
