<svg xmlns="http://www.w3.org/2000/svg" width="768" height="713" viewBox="0 0 768 713">
<path d="M 240 458 L 240 710 L 490 710 L 489 709 L 489 704 L 490 703 L 490 683 L 489 682 L 489 677 L 490 676 L 490 460 L 489 459 L 490 458 L 469 458 L 468 457 L 464 457 L 463 458 L 396 458 L 395 457 L 392 457 L 391 458 L 261 458 L 260 457 L 256 457 L 255 458 Z" fill="#0a0a09" fill-rule="evenodd"/>
<path d="M 491 441 L 491 456 L 507 456 L 507 441 L 506 440 L 494 440 L 493 441 Z" fill="#0a0a09" fill-rule="evenodd"/>
<path d="M 4 405 L 4 408 L 2 413 L 2 419 L 1 420 L 1 439 L 2 440 L 3 449 L 4 450 L 5 455 L 7 458 L 7 460 L 11 466 L 21 476 L 27 479 L 29 481 L 31 481 L 34 483 L 36 483 L 43 486 L 46 486 L 47 487 L 61 488 L 62 489 L 147 489 L 148 488 L 156 488 L 157 487 L 161 487 L 162 486 L 165 486 L 166 485 L 169 485 L 170 484 L 175 483 L 188 476 L 199 464 L 202 458 L 202 456 L 204 452 L 204 449 L 205 448 L 205 439 L 206 437 L 205 436 L 205 427 L 204 426 L 203 420 L 197 409 L 189 402 L 190 400 L 203 400 L 203 370 L 95 370 L 95 430 L 126 430 L 126 407 L 128 405 L 135 405 L 136 406 L 154 406 L 163 410 L 168 415 L 171 420 L 171 423 L 172 424 L 172 433 L 171 434 L 171 437 L 165 445 L 158 449 L 152 450 L 151 451 L 143 451 L 142 452 L 63 452 L 62 451 L 51 450 L 41 445 L 38 442 L 35 436 L 35 433 L 34 432 L 34 425 L 35 424 L 35 421 L 37 417 L 43 411 L 47 409 L 55 408 L 56 407 L 66 407 L 66 401 L 67 400 L 67 376 L 66 375 L 66 370 L 43 372 L 42 373 L 36 374 L 23 380 L 12 390 L 9 394 Z" fill="#0a0a09" fill-rule="evenodd"/>
<path d="M 202 219 L 201 220 L 197 220 L 196 221 L 192 221 L 191 222 L 187 222 L 186 223 L 181 223 L 180 224 L 176 224 L 175 225 L 164 226 L 163 227 L 159 227 L 158 228 L 154 228 L 153 229 L 149 229 L 148 230 L 144 230 L 143 231 L 139 231 L 138 232 L 133 232 L 132 233 L 123 234 L 116 237 L 109 243 L 107 242 L 107 241 L 100 233 L 94 229 L 84 225 L 81 225 L 76 223 L 69 223 L 68 222 L 51 222 L 50 223 L 42 223 L 41 224 L 31 226 L 20 232 L 14 238 L 9 245 L 8 249 L 6 252 L 6 255 L 4 260 L 4 265 L 3 266 L 3 273 L 2 274 L 2 343 L 6 343 L 7 344 L 11 344 L 12 343 L 159 343 L 160 344 L 166 344 L 167 343 L 199 343 L 201 344 L 202 343 L 203 344 L 204 343 L 204 306 L 203 305 L 189 305 L 188 306 L 150 306 L 149 305 L 125 306 L 124 305 L 124 276 L 128 271 L 132 269 L 146 268 L 147 267 L 154 267 L 155 266 L 159 266 L 160 265 L 164 265 L 165 264 L 169 264 L 170 263 L 175 263 L 176 262 L 181 262 L 182 261 L 186 261 L 187 260 L 198 259 L 203 257 L 202 256 L 202 253 L 203 252 L 203 250 L 202 249 L 202 240 L 203 239 Z M 39 267 L 45 262 L 47 262 L 51 260 L 74 260 L 82 263 L 88 269 L 91 276 L 91 304 L 90 305 L 79 305 L 78 306 L 37 306 L 35 304 L 35 275 Z" fill="#0a0a09" fill-rule="evenodd"/>
<path d="M 2 157 L 2 195 L 202 195 L 202 157 Z" fill="#0a0a09" fill-rule="evenodd"/>
<path d="M 526 8 L 526 162 L 553 162 L 553 8 Z" fill="#0a0a09" fill-rule="evenodd"/>
<path d="M 342 8 L 343 9 L 343 13 L 342 14 L 342 32 L 343 33 L 343 46 L 342 47 L 342 49 L 343 50 L 343 162 L 415 162 L 415 136 L 371 136 L 370 135 L 370 95 L 371 94 L 409 94 L 409 69 L 371 69 L 370 68 L 370 34 L 371 33 L 415 33 L 415 8 Z" fill="#0a0a09" fill-rule="evenodd"/>
<path d="M 766 8 L 763 8 L 762 7 L 760 7 L 759 8 L 739 8 L 739 97 L 738 98 L 736 97 L 733 86 L 731 83 L 731 80 L 729 77 L 729 74 L 727 71 L 727 69 L 726 68 L 721 51 L 719 48 L 719 45 L 718 44 L 717 39 L 715 36 L 715 34 L 714 33 L 708 13 L 706 10 L 706 8 L 676 8 L 676 162 L 702 162 L 702 68 L 703 67 L 705 68 L 706 73 L 708 76 L 708 78 L 709 79 L 709 81 L 710 82 L 710 84 L 711 85 L 711 87 L 712 88 L 712 90 L 713 91 L 713 93 L 714 94 L 725 129 L 727 132 L 728 138 L 730 141 L 736 161 L 737 162 L 765 162 L 766 161 L 766 81 L 765 80 L 765 74 L 766 73 L 766 10 L 765 9 Z" fill="#0a0a09" fill-rule="evenodd"/>
<path d="M 241 7 L 241 162 L 285 162 L 286 161 L 293 161 L 294 160 L 301 159 L 310 154 L 318 146 L 324 135 L 324 132 L 325 131 L 326 124 L 327 123 L 327 117 L 328 116 L 328 53 L 327 52 L 326 40 L 325 39 L 323 31 L 318 22 L 311 15 L 299 9 L 295 9 L 294 8 L 282 8 L 281 7 L 278 7 L 277 8 L 245 8 L 244 7 Z M 269 32 L 285 32 L 286 33 L 291 34 L 294 36 L 297 40 L 299 45 L 299 48 L 300 49 L 300 117 L 299 118 L 299 122 L 296 129 L 291 134 L 286 136 L 269 136 L 268 135 L 268 33 Z" fill="#0a0a09" fill-rule="evenodd"/>
<path d="M 608 5 L 607 6 L 603 6 L 602 7 L 596 8 L 587 13 L 579 21 L 573 33 L 572 39 L 571 40 L 571 44 L 570 45 L 570 54 L 569 55 L 569 115 L 570 116 L 571 130 L 572 131 L 574 139 L 580 149 L 587 156 L 596 161 L 598 161 L 602 163 L 606 163 L 607 164 L 624 164 L 625 163 L 633 162 L 644 156 L 651 149 L 656 140 L 656 138 L 658 134 L 658 130 L 659 129 L 659 122 L 660 121 L 660 77 L 614 77 L 614 101 L 632 101 L 633 102 L 633 117 L 632 118 L 632 124 L 631 125 L 631 127 L 629 131 L 625 135 L 618 138 L 614 138 L 606 135 L 600 128 L 599 122 L 598 121 L 598 115 L 597 114 L 597 60 L 598 59 L 598 48 L 599 47 L 599 44 L 601 39 L 607 33 L 612 31 L 618 31 L 619 32 L 624 33 L 629 38 L 631 42 L 631 46 L 632 47 L 632 56 L 639 56 L 640 55 L 642 56 L 659 56 L 660 55 L 660 48 L 659 47 L 659 39 L 658 38 L 658 35 L 657 34 L 656 29 L 651 20 L 645 14 L 635 8 L 629 7 L 628 6 L 623 6 L 622 5 Z" fill="#0a0a09" fill-rule="evenodd"/>
<path d="M 461 5 L 460 6 L 455 6 L 443 11 L 433 20 L 429 27 L 429 29 L 427 33 L 427 36 L 426 37 L 426 55 L 427 56 L 429 64 L 435 74 L 444 83 L 471 101 L 482 111 L 485 118 L 485 126 L 482 133 L 478 137 L 474 139 L 463 139 L 459 137 L 454 131 L 454 129 L 453 128 L 453 117 L 452 116 L 425 116 L 425 130 L 426 131 L 426 135 L 427 136 L 428 141 L 431 147 L 434 151 L 442 158 L 446 160 L 448 160 L 451 162 L 458 163 L 459 164 L 477 164 L 478 163 L 482 163 L 483 162 L 488 161 L 494 158 L 506 147 L 510 139 L 511 133 L 512 132 L 512 128 L 513 127 L 513 114 L 512 113 L 512 108 L 511 107 L 511 104 L 509 101 L 509 99 L 507 97 L 506 94 L 499 86 L 483 74 L 465 63 L 456 54 L 454 50 L 454 40 L 455 39 L 455 37 L 461 31 L 463 31 L 464 30 L 473 30 L 477 32 L 481 36 L 483 41 L 483 50 L 511 50 L 511 41 L 510 40 L 510 35 L 509 34 L 508 28 L 503 19 L 497 13 L 488 8 L 486 8 L 482 6 L 477 6 L 476 5 Z" fill="#0a0a09" fill-rule="evenodd"/>
<path d="M 6 40 L 5 47 L 3 52 L 3 61 L 2 62 L 2 127 L 14 127 L 15 128 L 21 128 L 22 127 L 30 127 L 31 128 L 40 128 L 41 127 L 94 127 L 95 128 L 104 128 L 105 127 L 109 127 L 110 128 L 112 128 L 113 127 L 142 127 L 143 128 L 153 128 L 154 127 L 202 127 L 202 53 L 201 52 L 201 47 L 200 46 L 198 38 L 196 35 L 196 33 L 190 24 L 181 16 L 168 9 L 166 9 L 162 7 L 159 7 L 158 6 L 154 6 L 153 5 L 147 5 L 146 4 L 133 4 L 132 3 L 75 3 L 74 4 L 60 4 L 59 5 L 53 5 L 52 6 L 48 6 L 47 7 L 44 7 L 43 8 L 35 10 L 23 17 L 19 21 L 18 21 L 13 27 Z M 35 65 L 36 64 L 37 58 L 40 53 L 45 48 L 55 43 L 66 42 L 67 41 L 136 41 L 137 42 L 144 42 L 145 43 L 149 43 L 157 46 L 160 48 L 167 56 L 170 64 L 170 89 L 169 90 L 36 90 L 35 89 Z" fill="#0a0a09" fill-rule="evenodd"/>
<path d="M 56 516 L 54 518 L 54 521 L 55 522 L 55 524 L 53 525 L 54 532 L 52 533 L 51 547 L 49 550 L 15 550 L 14 565 L 13 566 L 13 574 L 12 575 L 12 582 L 11 583 L 12 582 L 15 582 L 16 583 L 20 583 L 21 582 L 28 582 L 29 583 L 44 583 L 45 584 L 45 589 L 44 590 L 44 597 L 43 598 L 43 604 L 42 605 L 41 620 L 39 622 L 24 622 L 23 623 L 6 622 L 5 623 L 5 631 L 4 632 L 4 640 L 3 641 L 3 649 L 2 650 L 2 654 L 5 654 L 6 655 L 34 655 L 35 656 L 34 671 L 33 672 L 32 686 L 31 687 L 31 691 L 32 692 L 66 692 L 67 682 L 68 681 L 69 666 L 70 665 L 70 659 L 72 655 L 115 655 L 117 658 L 116 659 L 115 674 L 114 675 L 114 681 L 113 682 L 113 689 L 112 690 L 112 692 L 148 692 L 148 683 L 149 682 L 150 666 L 151 665 L 151 659 L 153 655 L 187 655 L 188 654 L 189 655 L 189 647 L 190 646 L 190 637 L 191 636 L 191 628 L 192 627 L 192 623 L 191 622 L 187 622 L 186 623 L 177 623 L 176 622 L 158 622 L 156 620 L 156 618 L 157 617 L 157 610 L 158 609 L 159 593 L 160 592 L 160 585 L 162 583 L 177 583 L 178 582 L 181 582 L 182 583 L 192 583 L 193 582 L 198 582 L 198 571 L 199 570 L 199 562 L 200 561 L 200 553 L 201 552 L 201 550 L 166 550 L 165 549 L 165 545 L 166 544 L 166 535 L 167 534 L 168 520 L 169 519 L 169 517 L 166 515 L 134 516 L 133 529 L 132 530 L 132 537 L 131 538 L 131 545 L 129 550 L 86 550 L 85 549 L 86 548 L 86 539 L 87 538 L 87 532 L 88 531 L 88 525 L 89 524 L 89 518 L 90 516 L 89 515 L 88 516 L 86 515 L 85 516 L 84 515 L 83 516 Z M 80 585 L 82 583 L 94 583 L 95 582 L 104 582 L 105 583 L 124 583 L 125 584 L 125 589 L 126 590 L 126 592 L 124 593 L 125 600 L 124 601 L 123 600 L 123 608 L 122 609 L 121 621 L 120 622 L 115 622 L 114 623 L 112 622 L 77 622 L 76 621 L 76 614 L 77 613 L 77 607 L 78 606 L 78 599 L 79 598 Z" fill="#fd5503" fill-rule="evenodd"/>
<path d="M 509 186 L 509 345 L 508 346 L 509 404 L 510 405 L 510 410 L 509 411 L 510 412 L 510 414 L 509 415 L 508 413 L 508 422 L 509 423 L 509 436 L 508 438 L 509 439 L 765 439 L 764 438 L 765 437 L 765 185 L 548 185 L 547 186 L 544 186 L 543 185 L 510 185 Z" fill="#fd5503" fill-rule="evenodd"/>
<path d="M 140 490 Z" fill="#b4e5eb" fill-rule="evenodd"/>
<path d="M 181 481 Z" fill="#b4e5eb" fill-rule="evenodd"/>
<path d="M 508 457 L 509 458 L 509 709 L 508 710 L 765 710 L 765 458 L 748 458 L 747 457 L 743 457 L 742 458 L 715 458 L 714 457 L 703 457 L 702 458 L 692 458 L 691 457 L 687 457 L 686 458 L 525 458 L 524 457 L 516 457 L 515 458 L 511 458 L 510 457 Z" fill="#b4e5eb" fill-rule="evenodd"/>
<path d="M 460 440 L 485 440 Z" fill="#b4e5eb" fill-rule="evenodd"/>
<path d="M 457 440 Z" fill="#b4e5eb" fill-rule="evenodd"/>
<path d="M 245 440 L 454 440 Z" fill="#b4e5eb" fill-rule="evenodd"/>
<path d="M 240 440 L 242 440 Z" fill="#b4e5eb" fill-rule="evenodd"/>
<path d="M 53 409 Z" fill="#b4e5eb" fill-rule="evenodd"/>
<path d="M 3 406 Z" fill="#b4e5eb" fill-rule="evenodd"/>
<path d="M 52 370 Z" fill="#b4e5eb" fill-rule="evenodd"/>
<path d="M 589 158 Z" fill="#b4e5eb" fill-rule="evenodd"/>
<path d="M 431 148 Z" fill="#b4e5eb" fill-rule="evenodd"/>
<path d="M 713 95 Z" fill="#b4e5eb" fill-rule="evenodd"/>
<path d="M 114 42 L 115 42 Z" fill="#b4e5eb" fill-rule="evenodd"/>
<path d="M 413 34 Z" fill="#b4e5eb" fill-rule="evenodd"/>
<path d="M 391 34 L 394 34 Z" fill="#b4e5eb" fill-rule="evenodd"/>
<path d="M 485 439 L 488 439 Z" fill="#264bf9" fill-rule="evenodd"/>
<path d="M 490 427 L 490 438 Z" fill="#264bf9" fill-rule="evenodd"/>
<path d="M 490 406 L 490 408 Z" fill="#264bf9" fill-rule="evenodd"/>
<path d="M 490 311 L 490 328 Z" fill="#264bf9" fill-rule="evenodd"/>
<path d="M 490 288 L 490 300 Z" fill="#264bf9" fill-rule="evenodd"/>
<path d="M 490 263 L 490 278 Z" fill="#264bf9" fill-rule="evenodd"/>
<path d="M 241 186 L 241 282 L 242 283 L 242 286 L 241 287 L 241 318 L 240 319 L 240 325 L 241 326 L 241 369 L 242 370 L 242 375 L 241 376 L 241 396 L 242 397 L 242 401 L 241 402 L 241 430 L 240 431 L 240 439 L 246 439 L 247 438 L 263 438 L 264 439 L 266 439 L 267 438 L 268 439 L 270 438 L 283 438 L 284 439 L 295 439 L 296 438 L 303 438 L 304 439 L 334 439 L 335 438 L 339 438 L 340 439 L 430 439 L 431 438 L 433 438 L 434 439 L 462 439 L 463 438 L 467 438 L 468 437 L 470 437 L 471 439 L 476 439 L 477 438 L 481 438 L 482 437 L 488 437 L 488 424 L 489 423 L 489 420 L 488 419 L 489 417 L 489 410 L 488 409 L 488 398 L 489 397 L 488 374 L 489 373 L 489 359 L 490 358 L 490 345 L 490 357 L 489 358 L 488 357 L 488 342 L 489 341 L 489 337 L 488 336 L 488 309 L 489 308 L 488 307 L 488 286 L 489 285 L 489 281 L 488 280 L 488 212 L 489 211 L 490 212 L 490 249 L 490 210 L 489 209 L 490 189 L 490 196 L 489 197 L 488 196 L 488 185 L 459 185 L 458 186 L 456 185 L 448 185 L 447 186 L 426 186 L 425 185 L 404 185 L 403 186 L 401 185 L 397 185 L 396 186 L 373 186 L 372 185 L 360 185 L 359 186 L 353 186 L 352 185 L 287 185 L 286 186 L 258 186 L 257 185 L 254 185 L 253 186 Z M 474 438 L 475 437 L 476 438 L 475 439 Z M 472 438 L 473 437 L 474 438 L 473 439 Z" fill="#264bf9" fill-rule="evenodd"/>
</svg>